<?xml version="1.0" encoding="UTF-8" standalone="no"?>
<!-- Created with Inkscape (http://www.inkscape.org/) -->

<svg
   xmlns:dc="http://purl.org/dc/elements/1.1/"
   xmlns:cc="http://creativecommons.org/ns#"
   xmlns:rdf="http://www.w3.org/1999/02/22-rdf-syntax-ns#"
   xmlns:svg="http://www.w3.org/2000/svg"
   xmlns="http://www.w3.org/2000/svg"
   xmlns:sodipodi="http://sodipodi.sourceforge.net/DTD/sodipodi-0.dtd"
   xmlns:inkscape="http://www.inkscape.org/namespaces/inkscape"
   width="210mm"
   height="297mm"
   viewBox="0 0 210 297"
   version="1.1"
   id="svg8"
   inkscape:version="0.92.5 (2060ec1f9f, 2020-04-08)"
   sodipodi:docname="the_problem.svg">
  <defs
     id="defs2">
    <marker
       inkscape:stockid="Arrow1Send"
       orient="auto"
       refY="0.0"
       refX="0.0"
       id="Arrow1Send"
       style="overflow:visible;"
       inkscape:isstock="true">
      <path
         id="path4687"
         d="M 0.0,0.0 L 5.0,-5.0 L -12.5,0.0 L 5.0,5.0 L 0.0,0.0 z "
         style="fill-rule:evenodd;stroke:#000000;stroke-width:1pt;stroke-opacity:1;fill:#000000;fill-opacity:1"
         transform="scale(0.2) rotate(180) translate(6,0)" />
    </marker>
    <marker
       inkscape:stockid="Arrow1Sstart"
       orient="auto"
       refY="0.0"
       refX="0.0"
       id="marker5144"
       style="overflow:visible"
       inkscape:isstock="true">
      <path
         id="path5142"
         d="M 0.0,0.0 L 5.0,-5.0 L -12.5,0.0 L 5.0,5.0 L 0.0,0.0 z "
         style="fill-rule:evenodd;stroke:#000000;stroke-width:1pt;stroke-opacity:1;fill:#000000;fill-opacity:1"
         transform="scale(0.2) translate(6,0)" />
    </marker>
    <marker
       inkscape:stockid="Arrow1Sstart"
       orient="auto"
       refY="0.0"
       refX="0.0"
       id="Arrow1Sstart"
       style="overflow:visible"
       inkscape:isstock="true">
      <path
         id="path4684"
         d="M 0.0,0.0 L 5.0,-5.0 L -12.5,0.0 L 5.0,5.0 L 0.0,0.0 z "
         style="fill-rule:evenodd;stroke:#000000;stroke-width:1pt;stroke-opacity:1;fill:#000000;fill-opacity:1"
         transform="scale(0.2) translate(6,0)" />
    </marker>
    <marker
       inkscape:stockid="Arrow1Lstart"
       orient="auto"
       refY="0.0"
       refX="0.0"
       id="Arrow1Lstart"
       style="overflow:visible"
       inkscape:isstock="true">
      <path
         id="path4672"
         d="M 0.0,0.0 L 5.0,-5.0 L -12.5,0.0 L 5.0,5.0 L 0.0,0.0 z "
         style="fill-rule:evenodd;stroke:#000000;stroke-width:1pt;stroke-opacity:1;fill:#000000;fill-opacity:1"
         transform="scale(0.8) translate(12.5,0)" />
    </marker>
    <style
       id="style88"
       type="text/css"><![CDATA[
    .svglite line, .svglite polyline, .svglite polygon, .svglite path, .svglite rect, .svglite circle {
      fill: none;
      stroke: #000000;
      stroke-linecap: round;
      stroke-linejoin: round;
      stroke-miterlimit: 10.00;
    }
  ]]></style>
    <clipPath
       id="cpMC4wMHwzMDEuNTB8MC4wMHw0MTIuNTA=">
      <rect
         id="rect94"
         height="412.50"
         width="301.50"
         y="0.00"
         x="0.00" />
    </clipPath>
  </defs>
  <sodipodi:namedview
     id="base"
     pagecolor="#ffffff"
     bordercolor="#666666"
     borderopacity="1.0"
     inkscape:pageopacity="1"
     inkscape:pageshadow="2"
     inkscape:zoom="0.98994949"
     inkscape:cx="225.05456"
     inkscape:cy="535.57114"
     inkscape:document-units="mm"
     inkscape:current-layer="layer1"
     showgrid="false"
     inkscape:window-width="1920"
     inkscape:window-height="1016"
     inkscape:window-x="0"
     inkscape:window-y="27"
     inkscape:window-maximized="1" />
  <metadata
     id="metadata5">
    <rdf:RDF>
      <cc:Work
         rdf:about="">
        <dc:format>image/svg+xml</dc:format>
        <dc:type
           rdf:resource="http://purl.org/dc/dcmitype/StillImage" />
        <dc:title />
      </cc:Work>
    </rdf:RDF>
  </metadata>
  <g
     inkscape:label="Layer 1"
     inkscape:groupmode="layer"
     id="layer1">
    <polyline
       transform="matrix(0.34279889,0,0,0.17497544,2.1402351,77.744945)"
       id="polyline6227"
       style="fill:none;stroke:#000000;stroke-width:4.36531496;stroke-linecap:butt;stroke-linejoin:round;stroke-miterlimit:10;stroke-dasharray:none"
       points="13.70,393.75 13.98,393.75 14.25,393.73 14.53,393.63 14.80,393.38 15.08,392.92 15.35,392.20 15.62,391.20 15.90,389.89 16.17,388.28 16.45,386.36 16.72,384.15 16.99,381.64 17.27,378.86 17.54,375.83 17.82,372.55 18.09,369.06 18.36,365.36 18.64,361.48 18.91,357.42 19.19,353.22 19.46,348.88 19.73,344.42 20.01,339.85 20.28,335.19 20.56,330.45 20.83,325.64 21.11,320.78 21.38,315.87 21.65,310.92 21.93,305.94 22.20,300.95 22.48,295.94 22.75,290.92 23.02,285.91 23.30,280.91 23.57,275.92 23.85,270.95 24.12,266.01 24.39,261.09 24.67,256.20 24.94,251.35 25.22,246.53 25.49,241.76 25.76,237.03 26.04,232.35 26.31,227.72 26.59,223.14 26.86,218.61 27.14,214.13 27.41,209.71 27.68,205.35 27.96,201.05 28.23,196.80 28.51,192.61 28.78,188.48 29.05,184.42 29.33,180.41 29.60,176.47 29.88,172.58 30.15,168.76 30.42,165.00 30.70,161.31 30.97,157.67 31.25,154.10 31.52,150.58 31.79,147.13 32.07,143.74 32.34,140.41 32.62,137.14 32.89,133.93 33.16,130.78 33.44,127.69 33.71,124.66 33.99,121.68 34.26,118.77 34.54,115.91 34.81,113.11 35.08,110.36 35.36,107.67 35.63,105.03 35.91,102.45 36.18,99.92 36.45,97.44 36.73,95.02 37.00,92.64 37.28,90.32 37.55,88.05 37.82,85.83 38.10,83.66 38.37,81.53 38.65,79.46 38.92,77.43 39.20,75.45 39.47,73.51 39.74,71.62 40.02,69.77 40.29,67.97 40.57,66.21 40.84,64.49 41.11,62.81 41.39,61.18 41.66,59.59 41.94,58.03 42.21,56.52 42.48,55.04 42.76,53.61 43.03,52.21 43.31,50.85 43.58,49.52 43.85,48.23 44.13,46.98 44.40,45.76 44.68,44.58 44.95,43.43 45.23,42.31 45.50,41.22 45.77,40.17 46.05,39.15 46.32,38.16 46.60,37.20 46.87,36.27 47.14,35.37 47.42,34.50 47.69,33.66 47.97,32.85 48.24,32.06 48.51,31.31 48.79,30.57 49.06,29.87 49.34,29.19 49.61,28.54 49.88,27.91 50.16,27.30 50.43,26.72 50.71,26.17 50.98,25.64 51.26,25.13 51.53,24.64 51.80,24.17 52.08,23.73 52.35,23.31 52.63,22.91 52.90,22.53 53.17,22.17 53.45,21.83 53.72,21.51 54.00,21.21 54.27,20.93 54.54,20.67 54.82,20.42 55.09,20.20 55.37,19.99 55.64,19.80 55.91,19.62 56.19,19.46 56.46,19.32 56.74,19.20 57.01,19.09 57.29,19.00 57.56,18.92 57.83,18.86 58.11,18.81 58.38,18.77 58.66,18.76 58.93,18.75 59.20,18.76 59.48,18.78 59.75,18.82 60.03,18.86 60.30,18.93 60.57,19.00 60.85,19.09 61.12,19.18 61.40,19.29 61.67,19.42 61.94,19.55 62.22,19.69 62.49,19.85 62.77,20.02 63.04,20.19 63.32,20.38 63.59,20.58 63.86,20.78 64.14,21.00 64.41,21.23 64.69,21.47 64.96,21.71 65.23,21.97 65.51,22.23 65.78,22.50 66.06,22.79 66.33,23.08 66.60,23.37 66.88,23.68 67.15,23.99 67.43,24.32 67.70,24.65 67.97,24.98 68.25,25.33 68.52,25.68 68.80,26.04 69.07,26.40 69.35,26.78 69.62,27.16 69.89,27.54 70.17,27.94 70.44,28.33 70.72,28.74 70.99,29.15 71.26,29.57 71.54,29.99 71.81,30.42 72.09,30.85 72.36,31.29 72.63,31.73 72.91,32.18 73.18,32.64 73.46,33.10 73.73,33.56 74.00,34.03 74.28,34.51 74.55,34.98 74.83,35.47 75.10,35.95 75.38,36.45 75.65,36.94 75.92,37.44 76.20,37.95 76.47,38.45 76.75,38.96 77.02,39.48 77.29,40.00 77.57,40.52 77.84,41.05 78.12,41.58 78.39,42.11 78.66,42.65 78.94,43.19 79.21,43.73 79.49,44.27 79.76,44.82 80.03,45.37 80.31,45.93 80.58,46.48 80.86,47.04 81.13,47.60 81.41,48.17 81.68,48.73 81.95,49.30 82.23,49.88 82.50,50.45 82.78,51.02 83.05,51.60 83.32,52.18 83.60,52.77 83.87,53.35 84.15,53.94 84.42,54.52 84.69,55.11 84.97,55.70 85.24,56.30 85.52,56.89 85.79,57.49 86.06,58.09 86.34,58.69 86.61,59.29 86.89,59.89 87.16,60.49 87.43,61.10 87.71,61.70 87.98,62.31 88.26,62.92 88.53,63.53 88.81,64.14 89.08,64.75 89.35,65.36 89.63,65.98 89.90,66.59 90.18,67.21 90.45,67.82 90.72,68.44 91.00,69.06 91.27,69.67 91.55,70.29 91.82,70.91 92.09,71.53 92.37,72.15 92.64,72.78 92.92,73.40 93.19,74.02 93.47,74.64 93.74,75.27 94.01,75.89 94.29,76.51 94.56,77.14 94.84,77.76 95.11,78.39 95.38,79.01 95.66,79.64 95.93,80.26 96.21,80.89 96.48,81.51 96.75,82.14 97.03,82.77 97.30,83.39 97.58,84.02 97.85,84.64 98.12,85.27 98.40,85.90 98.67,86.52 98.95,87.15 99.22,87.77 99.50,88.40 99.77,89.02 100.04,89.65 100.32,90.27 100.59,90.90 100.87,91.52 101.14,92.15 101.41,92.77 101.69,93.39 101.96,94.02 102.24,94.64 102.51,95.26 102.78,95.89 103.06,96.51 103.33,97.13 103.61,97.75 103.88,98.37 104.15,98.99 104.43,99.61 104.70,100.23 104.98,100.85 105.25,101.47 105.53,102.08 105.80,102.70 106.07,103.32 106.35,103.93 106.62,104.55 106.90,105.16 107.17,105.78 107.44,106.39 107.72,107.00 107.99,107.61 108.27,108.23 108.54,108.84 108.81,109.45 109.09,110.06 109.36,110.66 109.64,111.27 109.91,111.88 110.18,112.49 110.46,113.09 110.73,113.70 111.01,114.30 111.28,114.90 111.56,115.51 111.83,116.11 112.10,116.71 112.38,117.31 112.65,117.91 112.93,118.51 113.20,119.10 113.47,119.70 113.75,120.30 114.02,120.89 114.30,121.49 114.57,122.08 114.84,122.67 115.12,123.26 115.39,123.85 115.67,124.44 115.94,125.03 116.21,125.62 116.49,126.21 116.76,126.79 117.04,127.38 117.31,127.96 117.59,128.54 117.86,129.13 118.13,129.71 118.41,130.29 118.68,130.87 118.96,131.44 119.23,132.02 119.50,132.60 119.78,133.17 120.05,133.75 120.33,134.32 120.60,134.89 120.87,135.46 121.15,136.03 121.42,136.60 121.70,137.17 121.97,137.73 122.24,138.30 122.52,138.87 122.79,139.43 123.07,139.99 123.34,140.55 123.61,141.11 123.89,141.67 124.16,142.23 124.44,142.79 124.71,143.34 124.99,143.90 125.26,144.45 125.53,145.01 125.81,145.56 126.08,146.11 126.36,146.66 126.63,147.21 126.90,147.76 127.18,148.30 127.45,148.85 127.73,149.39 128.00,149.93 128.27,150.48 128.55,151.02 128.82,151.56 129.10,152.10 129.37,152.63 129.65,153.17 129.92,153.70 130.19,154.24 130.47,154.77 130.74,155.30 131.02,155.84 131.29,156.36 131.56,156.89 131.84,157.42 132.11,157.95 132.39,158.47 132.66,159.00 132.93,159.52 133.21,160.04 133.48,160.56 133.76,161.08 134.03,161.60 134.30,162.12 134.58,162.63 134.85,163.15 135.13,163.66 135.40,164.18 135.68,164.69 135.95,165.20 136.22,165.71 136.50,166.22 136.77,166.72 137.05,167.23 137.32,167.73 137.59,168.24 137.87,168.74 138.14,169.24 138.42,169.74 138.69,170.24 138.96,170.74 139.24,171.24 139.51,171.73 139.79,172.23 140.06,172.72 140.33,173.21 140.61,173.70 140.88,174.19 141.16,174.68 141.43,175.17 141.71,175.66 141.98,176.14 142.25,176.63 142.53,177.11 142.80,177.59 143.08,178.07 143.35,178.55 143.62,179.03 143.90,179.51 144.17,179.99 144.45,180.46 144.72,180.94 144.99,181.41 145.27,181.88 145.54,182.35 145.82,182.82 146.09,183.29 146.36,183.76 146.64,184.23 146.91,184.69 147.19,185.16 147.46,185.62 147.74,186.08 148.01,186.54 148.28,187.00 148.56,187.46 148.83,187.92 149.11,188.38 149.38,188.83 149.65,189.29 149.93,189.74 150.20,190.19 150.48,190.65 150.75,191.10 151.02,191.55 151.30,191.99 151.57,192.44 151.85,192.89 152.12,193.33 152.39,193.77 152.67,194.22 152.94,194.66 153.22,195.10 153.49,195.54 153.77,195.98 154.04,196.41 154.31,196.85 154.59,197.29 154.86,197.72 155.14,198.15 155.41,198.58 155.68,199.02 155.96,199.45 156.23,199.87 156.51,200.30 156.78,200.73 157.05,201.15 157.33,201.58 157.60,202.00 157.88,202.42 158.15,202.85 158.42,203.27 158.70,203.69 158.97,204.10 159.25,204.52 159.52,204.94 159.80,205.35 160.07,205.77 160.34,206.18 160.62,206.59 160.89,207.00 161.17,207.41 161.44,207.82 161.71,208.23 161.99,208.64 162.26,209.04 162.54,209.45 162.81,209.85 163.08,210.26 163.36,210.66 163.63,211.06 163.91,211.46 164.18,211.86 164.45,212.26 164.73,212.65 165.00,213.05 165.28,213.45 165.55,213.84 165.82,214.23 166.10,214.62 166.37,215.02 166.65,215.41 166.92,215.79 167.20,216.18 167.47,216.57 167.74,216.96 168.02,217.34 168.29,217.73 168.57,218.11 168.84,218.49 169.11,218.87 169.39,219.25 169.66,219.63 169.94,220.01 170.21,220.39 170.48,220.77 170.76,221.14 171.03,221.52 171.31,221.89 171.58,222.26 171.86,222.64 172.13,223.01 172.40,223.38 172.68,223.75 172.95,224.11 173.23,224.48 173.50,224.85 173.77,225.21 174.05,225.58 174.32,225.94 174.60,226.30 174.87,226.67 175.14,227.03 175.42,227.39 175.69,227.75 175.97,228.10 176.24,228.46 176.51,228.82 176.79,229.17 177.06,229.53 177.34,229.88 177.61,230.23 177.89,230.59 178.16,230.94 178.43,231.29 178.71,231.64 178.98,231.98 179.26,232.33 179.53,232.68 179.80,233.02 180.08,233.37 180.35,233.71 180.63,234.06 180.90,234.40 181.17,234.74 181.45,235.08 181.72,235.42 182.00,235.76 182.27,236.10 182.54,236.43 182.82,236.77 183.09,237.10 183.37,237.44 183.64,237.77 183.91,238.11 184.19,238.44 184.46,238.77 184.74,239.10 185.01,239.43 185.29,239.76 185.56,240.08 185.83,240.41 186.11,240.74 186.38,241.06 186.66,241.39 186.93,241.71 187.20,242.03 187.48,242.36 187.75,242.68 188.03,243.00 188.30,243.32 188.57,243.64 188.85,243.95 189.12,244.27 189.40,244.59 189.67,244.90 189.95,245.22 190.22,245.53 190.49,245.85 190.77,246.16 191.04,246.47 191.32,246.78 191.59,247.09 191.86,247.40 192.14,247.71 192.41,248.02 192.69,248.32 192.96,248.63 193.23,248.93 193.51,249.24 193.78,249.54 194.06,249.85 194.33,250.15 194.60,250.45 194.88,250.75 195.15,251.05 195.43,251.35 195.70,251.65 195.97,251.95 196.25,252.24 196.52,252.54 196.80,252.83 197.07,253.13 197.35,253.42 197.62,253.72 197.89,254.01 198.17,254.30 198.44,254.59 198.72,254.88 198.99,255.17 199.26,255.46 199.54,255.75 199.81,256.04 200.09,256.32 200.36,256.61 200.63,256.89 200.91,257.18 201.18,257.46 201.46,257.75 201.73,258.03 202.01,258.31 202.28,258.59 202.55,258.87 202.83,259.15 203.10,259.43 203.38,259.71 203.65,259.99 203.92,260.26 204.20,260.54 204.47,260.81 204.75,261.09 205.02,261.36 205.29,261.64 205.57,261.91 205.84,262.18 206.12,262.45 206.39,262.72 206.66,262.99 206.94,263.26 207.21,263.53 207.49,263.80 207.76,264.07 208.03,264.33 208.31,264.60 208.58,264.86 208.86,265.13 209.13,265.39 209.41,265.66 209.68,265.92 209.95,266.18 210.23,266.44 210.50,266.70 210.78,266.96 211.05,267.22 211.32,267.48 211.60,267.74 211.87,268.00 212.15,268.25 212.42,268.51 212.69,268.76 212.97,269.02 213.24,269.27 213.52,269.53 213.79,269.78 214.07,270.03 214.34,270.28 214.61,270.53 214.89,270.79 215.16,271.04 215.44,271.28 215.71,271.53 215.98,271.78 216.26,272.03 216.53,272.28 216.81,272.52 217.08,272.77 217.35,273.01 217.63,273.26 217.90,273.50 218.18,273.74 218.45,273.99 218.72,274.23 219.00,274.47 219.27,274.71 219.55,274.95 219.82,275.19 220.10,275.43 220.37,275.67 220.64,275.90 220.92,276.14 221.19,276.38 221.47,276.61 221.74,276.85 222.01,277.08 222.29,277.32 222.56,277.55 222.84,277.79 223.11,278.02 223.38,278.25 223.66,278.48 223.93,278.71 224.21,278.94 224.48,279.17 224.75,279.40 225.03,279.63 225.30,279.86 225.58,280.09 225.85,280.31 226.12,280.54 226.40,280.77 226.67,280.99 226.95,281.22 227.22,281.44 227.50,281.66 227.77,281.89 228.04,282.11 228.32,282.33 228.59,282.55 228.87,282.77 229.14,282.99 229.41,283.21 229.69,283.43 229.96,283.65 230.24,283.87 230.51,284.09 230.78,284.30 231.06,284.52 231.33,284.74 231.61,284.95 231.88,285.17 232.16,285.38 232.43,285.60 232.70,285.81 232.98,286.02 233.25,286.23 233.53,286.45 233.80,286.66 234.07,286.87 234.35,287.08 234.62,287.29 234.90,287.50 235.17,287.71 235.44,287.92 235.72,288.12 235.99,288.33 236.27,288.54 236.54,288.74 236.81,288.95 237.09,289.16 237.36,289.36 237.64,289.56 237.91,289.77 238.18,289.97 238.46,290.17 238.73,290.38 239.01,290.58 239.28,290.78 239.56,290.98 239.83,291.18 240.10,291.38 240.38,291.58 240.65,291.78 240.93,291.98 241.20,292.18 241.47,292.37 241.75,292.57 242.02,292.77 242.30,292.96 242.57,293.16 242.84,293.35 243.12,293.55 243.39,293.74 243.67,293.94 243.94,294.13 244.22,294.32 244.49,294.52 244.76,294.71 245.04,294.90 245.31,295.09 245.59,295.28 245.86,295.47 246.13,295.66 246.41,295.85 246.68,296.04 246.96,296.23 247.23,296.41 247.50,296.60 247.78,296.79 248.05,296.98 248.33,297.16 248.60,297.35 248.87,297.53 249.15,297.72 249.42,297.90 249.70,298.09 249.97,298.27 250.24,298.45 250.52,298.63 250.79,298.82 251.07,299.00 251.34,299.18 251.62,299.36 251.89,299.54 252.16,299.72 252.44,299.90 252.71,300.08 252.99,300.26 253.26,300.44 253.53,300.61 253.81,300.79 254.08,300.97 254.36,301.15 254.63,301.32 254.90,301.50 255.18,301.67 255.45,301.85 255.73,302.02 256.00,302.20 256.27,302.37 256.55,302.54 256.82,302.72 257.10,302.89 257.37,303.06 257.65,303.23 257.92,303.40 258.19,303.57 258.47,303.75 258.74,303.92 259.02,304.09 259.29,304.25 259.56,304.42 259.84,304.59 260.11,304.76 260.39,304.93 260.66,305.09 260.93,305.26 261.21,305.43 261.48,305.59 261.76,305.76 262.03,305.93 262.31,306.09 262.58,306.25 262.85,306.42 263.13,306.58 263.40,306.75 263.68,306.91 263.95,307.07 264.22,307.23 264.50,307.40 264.77,307.56 265.05,307.72 265.32,307.88 265.59,308.04 265.87,308.20 266.14,308.36 266.42,308.52 266.69,308.68 266.96,308.84 267.24,309.00 267.51,309.15 267.79,309.31 268.06,309.47 268.34,309.62 268.61,309.78 268.88,309.94 269.16,310.09 269.43,310.25 269.71,310.40 269.98,310.56 270.25,310.71 270.53,310.87 270.80,311.02 271.08,311.17 271.35,311.32 271.62,311.48 271.90,311.63 272.17,311.78 272.45,311.93 272.72,312.08 272.99,312.23 273.27,312.38 273.54,312.53 273.82,312.68 274.09,312.83 274.37,312.98 274.64,313.13 274.91,313.28 275.19,313.43 275.46,313.58 275.74,313.72 276.01,313.87 276.28,314.02 276.56,314.16 276.83,314.31 277.11,314.45 277.38,314.60 277.65,314.74 277.93,314.89 278.20,315.03 278.48,315.18 278.75,315.32 279.02,315.46 279.30,315.61 279.57,315.75 279.85,315.89 280.12,316.03 280.40,316.18 280.67,316.32 280.94,316.46 281.22,316.60 281.49,316.74 281.77,316.88 282.04,317.02 282.31,317.16 282.59,317.30 282.86,317.44 283.14,317.58 283.41,317.71 283.68,317.85 283.96,317.99 284.23,318.13 284.51,318.26 284.78,318.40 285.05,318.54 285.33,318.67 285.60,318.81 285.88,318.94 286.15,319.08 286.43,319.21 286.70,319.35 286.97,319.48 287.25,319.62 287.52,319.75 287.80,319.88 "
       inkscape:export-xdpi="300.04544"
       inkscape:export-ydpi="300.04544" />
    <rect
       id="rect3859"
       width="87.810539"
       height="7.0214958"
       x="-149.37051"
       y="6.6287746"
       style="fill:#aa0000;fill-opacity:0.60913706;stroke-width:0.62929404"
       inkscape:export-xdpi="300.04544"
       inkscape:export-ydpi="300.04544"
       transform="rotate(-90)" />
    <path
       style="fill:none;stroke:#000000;stroke-width:0.93484902;stroke-linecap:butt;stroke-linejoin:miter;stroke-miterlimit:0;stroke-dasharray:none;stroke-opacity:1;marker-start:url(#marker5144)"
       d="M 99.445803,151.40583 H 6.6287746"
       id="path4666"
       inkscape:connector-curvature="0"
       inkscape:export-xdpi="300.04544"
       inkscape:export-ydpi="300.04544" />
    <text
       xml:space="preserve"
       style="font-style:normal;font-weight:normal;font-size:10.58333302px;line-height:1.25;font-family:sans-serif;letter-spacing:0px;word-spacing:0px;fill:#000000;fill-opacity:1;stroke:none;stroke-width:0.26458332"
       x="21.905844"
       y="157.04956"
       id="text4670"
       inkscape:export-xdpi="300.04544"
       inkscape:export-ydpi="300.04544"><tspan
         sodipodi:role="line"
         id="tspan4668"
         x="21.905844"
         y="157.04956"
         style="font-size:4.23333311px;stroke-width:0.26458332">Analyte Concentration Range</tspan></text>
    <text
       xml:space="preserve"
       style="font-style:normal;font-weight:normal;font-size:10.58333302px;line-height:1.25;font-family:sans-serif;letter-spacing:0px;word-spacing:0px;fill:#000000;fill-opacity:1;stroke:none;stroke-width:0.26458332"
       x="43.564934"
       y="90.667931"
       id="text5252"
       inkscape:export-xdpi="300.04544"
       inkscape:export-ydpi="300.04544"><tspan
         sodipodi:role="line"
         id="tspan5250"
         x="43.564934"
         y="90.667931"
         style="font-size:4.23333311px;stroke-width:0.26458332">Instrument Response</tspan></text>
    <rect
       id="rect3859-3"
       width="87.810997"
       height="7.0214958"
       x="-149.37097"
       y="94.091339"
       style="fill:#e8d724;fill-opacity:0.73096448;stroke-width:0.62929577"
       inkscape:export-xdpi="300.04544"
       inkscape:export-ydpi="300.04544"
       transform="rotate(-90)" />
    <polyline
       id="polyline128"
       style="fill:none;stroke:#000000;stroke-width:4.15481901;stroke-linecap:butt;stroke-linejoin:round;stroke-miterlimit:10;stroke-dasharray:4.15481909, 4.15481909;stroke-dashoffset:0"
       points="13.70,393.75 13.98,393.75 14.25,393.75 14.53,393.75 14.80,393.75 15.07,393.75 15.35,393.75 15.62,393.75 15.90,393.75 16.17,393.75 16.45,393.75 16.72,393.75 16.99,393.75 17.27,393.75 17.54,393.75 17.82,393.75 18.09,393.75 18.36,393.75 18.64,393.75 18.91,393.75 19.19,393.75 19.46,393.75 19.73,393.75 20.01,393.75 20.28,393.75 20.56,393.75 20.83,393.75 21.10,393.75 21.38,393.75 21.65,393.75 21.93,393.75 22.20,393.75 22.48,393.75 22.75,393.75 23.02,393.75 23.30,393.75 23.57,393.75 23.85,393.75 24.12,393.75 24.39,393.75 24.67,393.75 24.94,393.75 25.22,393.75 25.49,393.75 25.76,393.75 26.04,393.75 26.31,393.75 26.59,393.75 26.86,393.75 27.14,393.75 27.41,393.75 27.68,393.75 27.96,393.75 28.23,393.75 28.51,393.75 28.78,393.75 29.05,393.75 29.33,393.75 29.60,393.75 29.88,393.75 30.15,393.75 30.42,393.75 30.70,393.75 30.97,393.75 31.25,393.75 31.52,393.75 31.79,393.75 32.07,393.75 32.34,393.75 32.62,393.75 32.89,393.75 33.16,393.75 33.44,393.75 33.71,393.75 33.99,393.75 34.26,393.75 34.54,393.75 34.81,393.75 35.08,393.75 35.36,393.75 35.63,393.74 35.91,393.74 36.18,393.74 36.45,393.74 36.73,393.74 37.00,393.74 37.28,393.74 37.55,393.74 37.82,393.74 38.10,393.74 38.37,393.74 38.65,393.74 38.92,393.74 39.20,393.74 39.47,393.74 39.74,393.74 40.02,393.74 40.29,393.74 40.57,393.74 40.84,393.74 41.11,393.74 41.39,393.74 41.66,393.74 41.94,393.74 42.21,393.74 42.48,393.74 42.76,393.73 43.03,393.73 43.31,393.73 43.58,393.73 43.85,393.73 44.13,393.73 44.40,393.73 44.68,393.73 44.95,393.73 45.23,393.73 45.50,393.73 45.77,393.73 46.05,393.72 46.32,393.72 46.60,393.72 46.87,393.72 47.14,393.72 47.42,393.72 47.69,393.72 47.97,393.72 48.24,393.71 48.51,393.71 48.79,393.71 49.06,393.71 49.34,393.71 49.61,393.71 49.88,393.71 50.16,393.70 50.43,393.70 50.71,393.70 50.98,393.70 51.26,393.70 51.53,393.69 51.80,393.69 52.08,393.69 52.35,393.69 52.63,393.68 52.90,393.68 53.17,393.68 53.45,393.68 53.72,393.67 54.00,393.67 54.27,393.67 54.54,393.66 54.82,393.66 55.09,393.66 55.37,393.65 55.64,393.65 55.91,393.65 56.19,393.64 56.46,393.64 56.74,393.63 57.01,393.63 57.29,393.63 57.56,393.62 57.83,393.62 58.11,393.61 58.38,393.61 58.66,393.60 58.93,393.60 59.20,393.59 59.48,393.58 59.75,393.58 60.03,393.57 60.30,393.57 60.57,393.56 60.85,393.55 61.12,393.54 61.40,393.54 61.67,393.53 61.94,393.52 62.22,393.51 62.49,393.51 62.77,393.50 63.04,393.49 63.32,393.48 63.59,393.47 63.86,393.46 64.14,393.45 64.41,393.44 64.69,393.43 64.96,393.42 65.23,393.41 65.51,393.39 65.78,393.38 66.06,393.37 66.33,393.36 66.60,393.34 66.88,393.33 67.15,393.31 67.43,393.30 67.70,393.28 67.97,393.27 68.25,393.25 68.52,393.24 68.80,393.22 69.07,393.20 69.35,393.18 69.62,393.16 69.89,393.14 70.17,393.12 70.44,393.10 70.72,393.08 70.99,393.06 71.26,393.04 71.54,393.02 71.81,392.99 72.09,392.97 72.36,392.94 72.63,392.92 72.91,392.89 73.18,392.86 73.46,392.84 73.73,392.81 74.00,392.78 74.28,392.75 74.55,392.72 74.83,392.68 75.10,392.65 75.38,392.62 75.65,392.58 75.92,392.54 76.20,392.51 76.47,392.47 76.75,392.43 77.02,392.39 77.29,392.35 77.57,392.31 77.84,392.26 78.12,392.22 78.39,392.17 78.66,392.13 78.94,392.08 79.21,392.03 79.49,391.98 79.76,391.92 80.03,391.87 80.31,391.82 80.58,391.76 80.86,391.70 81.13,391.64 81.41,391.58 81.68,391.52 81.95,391.45 82.23,391.39 82.50,391.32 82.78,391.25 83.05,391.18 83.32,391.11 83.60,391.03 83.87,390.96 84.15,390.88 84.42,390.80 84.69,390.72 84.97,390.63 85.24,390.55 85.52,390.46 85.79,390.37 86.06,390.28 86.34,390.18 86.61,390.09 86.89,389.99 87.16,389.89 87.43,389.78 87.71,389.68 87.98,389.57 88.26,389.46 88.53,389.34 88.81,389.23 89.08,389.11 89.35,388.98 89.63,388.86 89.90,388.73 90.18,388.60 90.45,388.47 90.72,388.33 91.00,388.19 91.27,388.05 91.55,387.91 91.82,387.76 92.09,387.61 92.37,387.45 92.64,387.29 92.92,387.13 93.19,386.97 93.47,386.80 93.74,386.63 94.01,386.45 94.29,386.27 94.56,386.09 94.84,385.90 95.11,385.71 95.38,385.52 95.66,385.32 95.93,385.12 96.21,384.91 96.48,384.70 96.75,384.49 97.03,384.27 97.30,384.04 97.58,383.81 97.85,383.58 98.12,383.35 98.40,383.10 98.67,382.86 98.95,382.61 99.22,382.35 99.50,382.09 99.77,381.83 100.04,381.56 100.32,381.28 100.59,381.00 100.87,380.71 101.14,380.42 101.41,380.13 101.69,379.83 101.96,379.52 102.24,379.21 102.51,378.89 102.78,378.57 103.06,378.24 103.33,377.90 103.61,377.56 103.88,377.21 104.15,376.86 104.43,376.50 104.70,376.14 104.98,375.77 105.25,375.39 105.53,375.01 105.80,374.62 106.07,374.22 106.35,373.82 106.62,373.41 106.90,372.99 107.17,372.57 107.44,372.14 107.72,371.70 107.99,371.26 108.27,370.81 108.54,370.35 108.81,369.89 109.09,369.42 109.36,368.94 109.64,368.45 109.91,367.96 110.18,367.46 110.46,366.95 110.73,366.44 111.01,365.91 111.28,365.38 111.56,364.85 111.83,364.30 112.10,363.75 112.38,363.18 112.65,362.62 112.93,362.04 113.20,361.45 113.47,360.86 113.75,360.26 114.02,359.65 114.30,359.03 114.57,358.40 114.84,357.77 115.12,357.13 115.39,356.48 115.67,355.82 115.94,355.15 116.21,354.47 116.49,353.79 116.76,353.09 117.04,352.39 117.31,351.68 117.59,350.96 117.86,350.23 118.13,349.50 118.41,348.75 118.68,348.00 118.96,347.23 119.23,346.46 119.50,345.68 119.78,344.89 120.05,344.09 120.33,343.28 120.60,342.47 120.87,341.64 121.15,340.81 121.42,339.96 121.70,339.11 121.97,338.25 122.24,337.38 122.52,336.49 122.79,335.61 123.07,334.71 123.34,333.80 123.61,332.88 123.89,331.96 124.16,331.02 124.44,330.08 124.71,329.13 124.99,328.17 125.26,327.19 125.53,326.21 125.81,325.23 126.08,324.23 126.36,323.22 126.63,322.21 126.90,321.18 127.18,320.15 127.45,319.10 127.73,318.05 128.00,316.99 128.27,315.92 128.55,314.85 128.82,313.76 129.10,312.67 129.37,311.56 129.65,310.45 129.92,309.33 130.19,308.20 130.47,307.06 130.74,305.92 131.02,304.76 131.29,303.60 131.56,302.43 131.84,301.25 132.11,300.06 132.39,298.87 132.66,297.66 132.93,296.45 133.21,295.23 133.48,294.01 133.76,292.77 134.03,291.53 134.30,290.28 134.58,289.02 134.85,287.76 135.13,286.49 135.40,285.21 135.68,283.92 135.95,282.63 136.22,281.33 136.50,280.02 136.77,278.71 137.05,277.39 137.32,276.06 137.59,274.73 137.87,273.39 138.14,272.04 138.42,270.69 138.69,269.33 138.96,267.97 139.24,266.60 139.51,265.22 139.79,263.84 140.06,262.46 140.33,261.06 140.61,259.67 140.88,258.26 141.16,256.86 141.43,255.45 141.71,254.03 141.98,252.61 142.25,251.18 142.53,249.75 142.80,248.32 143.08,246.88 143.35,245.44 143.62,243.99 143.90,242.54 144.17,241.09 144.45,239.63 144.72,238.17 144.99,236.71 145.27,235.24 145.54,233.77 145.82,232.30 146.09,230.82 146.36,229.35 146.64,227.87 146.91,226.39 147.19,224.90 147.46,223.42 147.74,221.93 148.01,220.44 148.28,218.95 148.56,217.46 148.83,215.97 149.11,214.47 149.38,212.98 149.65,211.49 149.93,209.99 150.20,208.49 150.48,207.00 150.75,205.50 151.02,204.01 151.30,202.51 151.57,201.01 151.85,199.52 152.12,198.03 152.39,196.53 152.67,195.04 152.94,193.55 153.22,192.06 153.49,190.57 153.77,189.08 154.04,187.60 154.31,186.11 154.59,184.63 154.86,183.15 155.14,181.68 155.41,180.20 155.68,178.73 155.96,177.26 156.23,175.79 156.51,174.33 156.78,172.87 157.05,171.41 157.33,169.96 157.60,168.51 157.88,167.06 158.15,165.62 158.42,164.18 158.70,162.75 158.97,161.32 159.25,159.89 159.52,158.47 159.80,157.05 160.07,155.64 160.34,154.24 160.62,152.83 160.89,151.44 161.17,150.04 161.44,148.66 161.71,147.28 161.99,145.90 162.26,144.53 162.54,143.17 162.81,141.81 163.08,140.46 163.36,139.11 163.63,137.77 163.91,136.44 164.18,135.11 164.45,133.79 164.73,132.48 165.00,131.17 165.28,129.87 165.55,128.58 165.82,127.29 166.10,126.01 166.37,124.74 166.65,123.48 166.92,122.22 167.20,120.97 167.47,119.73 167.74,118.49 168.02,117.27 168.29,116.05 168.57,114.84 168.84,113.63 169.11,112.44 169.39,111.25 169.66,110.07 169.94,108.90 170.21,107.74 170.48,106.58 170.76,105.44 171.03,104.30 171.31,103.17 171.58,102.05 171.86,100.94 172.13,99.83 172.40,98.74 172.68,97.65 172.95,96.58 173.23,95.51 173.50,94.45 173.77,93.40 174.05,92.35 174.32,91.32 174.60,90.29 174.87,89.28 175.14,88.27 175.42,87.27 175.69,86.29 175.97,85.31 176.24,84.33 176.51,83.37 176.79,82.42 177.06,81.48 177.34,80.54 177.61,79.62 177.89,78.70 178.16,77.79 178.43,76.89 178.71,76.01 178.98,75.12 179.26,74.25 179.53,73.39 179.80,72.54 180.08,71.69 180.35,70.86 180.63,70.03 180.90,69.22 181.17,68.41 181.45,67.61 181.72,66.82 182.00,66.04 182.27,65.27 182.54,64.50 182.82,63.75 183.09,63.00 183.37,62.27 183.64,61.54 183.91,60.82 184.19,60.11 184.46,59.41 184.74,58.71 185.01,58.03 185.29,57.35 185.56,56.68 185.83,56.02 186.11,55.37 186.38,54.73 186.66,54.10 186.93,53.47 187.20,52.85 187.48,52.24 187.75,51.64 188.03,51.05 188.30,50.46 188.57,49.88 188.85,49.32 189.12,48.75 189.40,48.20 189.67,47.65 189.95,47.12 190.22,46.59 190.49,46.06 190.77,45.55 191.04,45.04 191.32,44.54 191.59,44.05 191.86,43.56 192.14,43.08 192.41,42.61 192.69,42.15 192.96,41.69 193.23,41.24 193.51,40.80 193.78,40.36 194.06,39.93 194.33,39.51 194.60,39.09 194.88,38.68 195.15,38.28 195.43,37.88 195.70,37.49 195.97,37.11 196.25,36.73 196.52,36.36 196.80,36.00 197.07,35.64 197.35,35.29 197.62,34.94 197.89,34.60 198.17,34.26 198.44,33.93 198.72,33.61 198.99,33.29 199.26,32.98 199.54,32.67 199.81,32.37 200.09,32.08 200.36,31.79 200.63,31.50 200.91,31.22 201.18,30.94 201.46,30.67 201.73,30.41 202.01,30.15 202.28,29.89 202.55,29.64 202.83,29.40 203.10,29.15 203.38,28.92 203.65,28.69 203.92,28.46 204.20,28.23 204.47,28.01 204.75,27.80 205.02,27.59 205.29,27.38 205.57,27.18 205.84,26.98 206.12,26.79 206.39,26.60 206.66,26.41 206.94,26.23 207.21,26.05 207.49,25.87 207.76,25.70 208.03,25.53 208.31,25.37 208.58,25.21 208.86,25.05 209.13,24.89 209.41,24.74 209.68,24.59 209.95,24.45 210.23,24.31 210.50,24.17 210.78,24.03 211.05,23.90 211.32,23.77 211.60,23.64 211.87,23.52 212.15,23.39 212.42,23.27 212.69,23.16 212.97,23.04 213.24,22.93 213.52,22.82 213.79,22.72 214.07,22.61 214.34,22.51 214.61,22.41 214.89,22.32 215.16,22.22 215.44,22.13 215.71,22.04 215.98,21.95 216.26,21.87 216.53,21.78 216.81,21.70 217.08,21.62 217.35,21.54 217.63,21.47 217.90,21.39 218.18,21.32 218.45,21.25 218.72,21.18 219.00,21.11 219.27,21.05 219.55,20.98 219.82,20.92 220.10,20.86 220.37,20.80 220.64,20.74 220.92,20.68 221.19,20.63 221.47,20.58 221.74,20.52 222.01,20.47 222.29,20.42 222.56,20.37 222.84,20.33 223.11,20.28 223.38,20.24 223.66,20.19 223.93,20.15 224.21,20.11 224.48,20.07 224.75,20.03 225.03,19.99 225.30,19.96 225.58,19.92 225.85,19.88 226.12,19.85 226.40,19.82 226.67,19.78 226.95,19.75 227.22,19.72 227.50,19.69 227.77,19.66 228.04,19.64 228.32,19.61 228.59,19.58 228.87,19.56 229.14,19.53 229.41,19.51 229.69,19.48 229.96,19.46 230.24,19.44 230.51,19.42 230.78,19.40 231.06,19.38 231.33,19.36 231.61,19.34 231.88,19.32 232.16,19.30 232.43,19.28 232.70,19.26 232.98,19.25 233.25,19.23 233.53,19.22 233.80,19.20 234.07,19.19 234.35,19.17 234.62,19.16 234.90,19.14 235.17,19.13 235.44,19.12 235.72,19.11 235.99,19.09 236.27,19.08 236.54,19.07 236.81,19.06 237.09,19.05 237.36,19.04 237.64,19.03 237.91,19.02 238.18,19.01 238.46,19.00 238.73,18.99 239.01,18.99 239.28,18.98 239.56,18.97 239.83,18.96 240.10,18.96 240.38,18.95 240.65,18.94 240.93,18.93 241.20,18.93 241.47,18.92 241.75,18.92 242.02,18.91 242.30,18.90 242.57,18.90 242.84,18.89 243.12,18.89 243.39,18.88 243.67,18.88 243.94,18.87 244.22,18.87 244.49,18.87 244.76,18.86 245.04,18.86 245.31,18.85 245.59,18.85 245.86,18.85 246.13,18.84 246.41,18.84 246.68,18.84 246.96,18.83 247.23,18.83 247.50,18.83 247.78,18.82 248.05,18.82 248.33,18.82 248.60,18.82 248.87,18.81 249.15,18.81 249.42,18.81 249.70,18.81 249.97,18.80 250.24,18.80 250.52,18.80 250.79,18.80 251.07,18.80 251.34,18.79 251.62,18.79 251.89,18.79 252.16,18.79 252.44,18.79 252.71,18.79 252.99,18.79 253.26,18.78 253.53,18.78 253.81,18.78 254.08,18.78 254.36,18.78 254.63,18.78 254.90,18.78 255.18,18.78 255.45,18.77 255.73,18.77 256.00,18.77 256.27,18.77 256.55,18.77 256.82,18.77 257.10,18.77 257.37,18.77 257.65,18.77 257.92,18.77 258.19,18.77 258.47,18.77 258.74,18.76 259.02,18.76 259.29,18.76 259.56,18.76 259.84,18.76 260.11,18.76 260.39,18.76 260.66,18.76 260.93,18.76 261.21,18.76 261.48,18.76 261.76,18.76 262.03,18.76 262.31,18.76 262.58,18.76 262.85,18.76 263.13,18.76 263.40,18.76 263.68,18.76 263.95,18.76 264.22,18.76 264.50,18.76 264.77,18.76 265.05,18.76 265.32,18.76 265.59,18.76 265.87,18.75 266.14,18.75 266.42,18.75 266.69,18.75 266.96,18.75 267.24,18.75 267.51,18.75 267.79,18.75 268.06,18.75 268.34,18.75 268.61,18.75 268.88,18.75 269.16,18.75 269.43,18.75 269.71,18.75 269.98,18.75 270.25,18.75 270.53,18.75 270.80,18.75 271.08,18.75 271.35,18.75 271.62,18.75 271.90,18.75 272.17,18.75 272.45,18.75 272.72,18.75 272.99,18.75 273.27,18.75 273.54,18.75 273.82,18.75 274.09,18.75 274.37,18.75 274.64,18.75 274.91,18.75 275.19,18.75 275.46,18.75 275.74,18.75 276.01,18.75 276.28,18.75 276.56,18.75 276.83,18.75 277.11,18.75 277.38,18.75 277.65,18.75 277.93,18.75 278.20,18.75 278.48,18.75 278.75,18.75 279.02,18.75 279.30,18.75 279.57,18.75 279.85,18.75 280.12,18.75 280.40,18.75 280.67,18.75 280.94,18.75 281.22,18.75 281.49,18.75 281.77,18.75 282.04,18.75 282.31,18.75 282.59,18.75 282.86,18.75 283.14,18.75 283.41,18.75 283.68,18.75 283.96,18.75 284.23,18.75 284.51,18.75 284.78,18.75 285.05,18.75 285.33,18.75 285.60,18.75 285.88,18.75 286.15,18.75 286.43,18.75 286.70,18.75 286.97,18.75 287.25,18.75 287.52,18.75 287.80,18.75 "
       transform="matrix(0,0.32442473,0.21348235,0,9.7217961,57.064788)"
       inkscape:export-xdpi="300.04544"
       inkscape:export-ydpi="300.04544" />
    <text
       xml:space="preserve"
       style="font-style:normal;font-weight:normal;font-size:10.58333302px;line-height:1.25;font-family:sans-serif;letter-spacing:0px;word-spacing:0px;fill:#000000;fill-opacity:1;stroke:none;stroke-width:0.26458332"
       x="15.26128"
       y="76.919151"
       id="text5252-6"
       inkscape:export-xdpi="300.04544"
       inkscape:export-ydpi="300.04544"><tspan
         sodipodi:role="line"
         id="tspan5250-7"
         x="15.26128"
         y="76.919151"
         style="font-size:4.23333311px;stroke-width:0.26458332">Sample Feature Distribution</tspan></text>
  </g>
</svg>
